<svg width="231" height="101" viewBox="0 0 231 101" fill="none" xmlns="http://www.w3.org/2000/svg">
<path d="M54.036 70.869C53.936 70.869 53.936 70.869 53.836 70.869C42.436 72.869 31.536 65.169 29.636 53.869C27.636 42.469 35.336 31.569 46.636 29.669C51.236 28.869 55.736 29.669 59.536 31.569L78.236 28.369C70.436 18.369 57.436 12.969 44.136 15.269C24.836 18.669 11.836 37.169 15.136 56.469C18.536 75.769 37.036 88.769 56.336 85.469C67.936 83.469 77.236 75.969 82.136 66.069L54.036 70.869Z" fill="#C39952"/>
<path d="M82.136 65.969C77.236 75.769 67.936 83.269 56.336 85.369C37.036 88.769 18.536 75.769 15.136 56.369C11.736 37.069 24.736 18.569 44.136 15.169C57.436 12.869 70.436 18.269 78.236 28.269L94.036 25.569C83.836 7.56901 63.136 -3.03101 41.636 0.768989C14.336 5.56899 -3.964 31.669 0.736002 58.969C5.536 86.269 31.636 104.569 58.936 99.869C78.836 96.369 94.036 81.569 98.936 63.169L82.136 65.969Z" fill="#5E1D17"/>
<path d="M177.736 71.569L171.136 80.169L58.636 99.869L56.136 85.369L168.636 65.769L177.736 71.569Z" fill="#5E1D17"/>
<path d="M230.336 47.569L222.436 56.369L56.136 85.369L53.636 70.969L219.936 41.869L230.336 47.569Z" fill="#C39952"/>
<path d="M58.436 64.9691L43.336 67.5691V60.9691L45.636 60.5691V46.0691L42.536 46.5691V51.5691L37.536 52.4691V40.7691L64.236 36.1691V47.8691L59.236 48.7691V43.7691L56.136 44.2691V58.7691L58.536 58.3691L58.436 64.9691Z" fill="white"/>
<path d="M92.836 59.069L67.136 63.569V56.969L69.236 56.569V42.069L67.136 42.469V35.869L92.836 31.369V40.269L85.736 41.469V39.269L79.636 40.369V44.669L84.936 43.769V49.369L79.636 50.269V54.769L85.736 53.669V51.469L92.836 50.269V59.069Z" fill="white"/>
<path d="M110.236 55.969L95.636 58.469V51.8691L97.836 51.469V36.969L95.636 37.3691V30.7691L110.236 28.2691C111.536 28.0691 112.736 27.8691 113.936 27.6691C115.036 27.5691 116.036 27.4691 116.836 27.3691C117.636 27.2691 118.336 27.2691 119.036 27.3691C120.936 27.4691 122.436 28.0691 123.636 29.2691C124.836 30.4691 125.436 32.069 125.436 33.969C125.436 35.369 125.036 36.7691 124.336 38.0691C123.636 39.3691 122.636 40.3691 121.436 41.0691L125.136 46.7691L127.036 46.469V53.0691L117.336 54.7691L111.536 44.469L108.236 45.0691V49.7691L110.236 49.3691V55.969ZM108.236 34.6691V39.969L109.436 39.7691C110.936 39.4691 112.036 39.2691 112.536 39.0691C113.136 38.8691 113.636 38.569 114.036 37.969C114.436 37.469 114.636 36.8691 114.636 36.1691C114.636 35.4691 114.436 34.8691 114.036 34.5691C113.636 34.1691 113.136 34.0691 112.536 34.0691C111.936 34.0691 110.836 34.269 109.336 34.469L108.236 34.6691Z" fill="white"/>
<path d="M126.536 61.369V54.5691C126.936 54.5691 127.336 54.5691 127.636 54.5691C128.436 54.4691 129.036 54.069 129.236 53.369C129.436 52.769 129.536 51.2691 129.536 49.0691V31.5691L127.036 31.969V25.369L142.236 22.769V29.369L139.936 29.7691V45.969C139.936 48.969 139.836 51.169 139.736 52.369C139.536 53.669 139.136 54.869 138.436 56.169C137.636 57.469 136.736 58.4691 135.536 59.2691C134.336 60.0691 132.636 60.669 130.536 60.969C129.236 61.269 127.936 61.369 126.536 61.369Z" fill="white"/>
<path d="M170.536 45.5691L144.836 50.0691V43.4691L146.936 43.0691V28.5691L144.836 28.9691V22.3691L170.536 17.8691V26.7691L163.436 27.9691V25.7691L157.336 26.8691V31.1691L162.636 30.2691V35.8691L157.336 36.7691V41.2691L163.436 40.1691V37.9691L170.536 36.7691V45.5691ZM158.136 18.2691L153.536 19.0691L157.236 11.1691L166.236 9.56909L158.136 18.2691Z" fill="white"/>
<path d="M188.036 42.4691L173.436 44.9691V38.3691L175.536 37.9691V23.4691L173.436 23.8691V17.2691L188.036 14.7691V21.3691L185.936 21.7691V36.2691L188.036 35.8691V42.4691ZM204.736 39.5691L190.836 41.9691V35.3691L192.136 35.1691L186.236 28.2691L193.136 20.5691L190.936 20.9691V14.3691L204.236 12.0691V18.6691L202.136 19.0691L196.636 25.2691L203.436 33.2691L204.736 33.0691V39.5691Z" fill="white"/>
<path d="M222.536 36.469L207.236 39.169V32.5691L209.736 32.169V17.669L207.236 18.0691V11.4691L222.536 8.76904V15.369L220.036 15.769V30.2691L222.536 29.869V36.469Z" fill="white"/>
<path d="M36.8361 40.269V53.469L43.4361 52.369V47.369L45.0361 47.069V59.969L42.7361 60.369V68.569L59.3361 65.669V57.469L56.9361 57.869V44.969L58.4361 44.669V49.669L65.0361 48.569V35.369L37.0361 40.269H36.8361ZM41.8361 45.969V50.969L38.3361 51.569V41.469L63.5361 37.069V47.169L60.0361 47.769V42.769L55.4361 43.569V59.569L57.8361 59.169V64.269L44.2361 66.669V61.569L46.5361 61.169V45.169L41.8361 45.969Z" fill="#C39951"/>
<path d="M66.4361 35.169V43.369L68.5361 42.969V55.869L66.4361 56.269V64.469L93.4361 59.769H93.6361V49.369L85.0361 50.869V53.069L80.4361 53.869V50.869L85.7361 49.969V42.769L80.4361 43.669V40.969L85.0361 40.169V42.369L93.6361 40.869V30.469L66.6361 35.169H66.4361ZM86.5361 54.269V52.069L92.0361 51.069V58.369L67.9361 62.569V57.469L70.0361 57.069V41.069L67.9361 41.469V36.369L92.1361 32.169V39.469L86.6361 40.469V38.269L79.0361 39.569V45.369L84.3361 44.469V48.569L79.0361 49.469V55.569L86.5361 54.269Z" fill="#C39951"/>
<path d="M112.736 39.869C113.436 39.669 114.036 39.169 114.536 38.569C115.036 37.969 115.336 37.169 115.336 36.269C115.336 35.369 115.036 34.569 114.536 34.069C113.936 33.569 113.236 33.269 112.436 33.369C111.836 33.369 110.736 33.569 109.036 33.769L107.436 34.069V40.869L109.536 40.469C111.136 40.269 112.136 40.069 112.736 39.869ZM109.036 39.069V35.369L109.336 35.269C110.836 34.969 111.936 34.869 112.436 34.869C112.836 34.869 113.136 34.969 113.436 35.169C113.636 35.369 113.736 35.669 113.736 36.169C113.736 36.669 113.636 37.169 113.336 37.469C113.036 37.869 112.636 38.169 112.236 38.269C111.736 38.469 110.736 38.669 109.236 38.869L109.036 39.069Z" fill="#C39951"/>
<path d="M126.436 24.669V32.869L128.936 32.469V49.069C128.936 51.869 128.736 52.869 128.636 53.169C128.536 53.369 128.436 53.569 127.936 53.769V45.569L125.636 45.969L122.636 41.269C123.636 40.469 124.436 39.569 125.136 38.369C125.936 36.969 126.336 35.469 126.336 33.869C126.336 31.769 125.636 29.969 124.336 28.669C123.036 27.369 121.336 26.669 119.236 26.569C118.536 26.569 117.736 26.569 116.936 26.569C116.136 26.669 115.136 26.769 114.036 26.869C112.936 26.969 111.636 27.169 110.336 27.469L95.2361 30.069H95.0361V38.269L97.2361 37.869V50.769L95.0361 51.169V59.369L110.936 56.569H111.136V48.369L109.136 48.769V45.669L111.236 45.269L117.036 55.569L125.836 54.069V62.169H126.636C128.136 62.169 129.436 62.069 130.736 61.769C132.936 61.369 134.736 60.769 136.036 59.969C137.336 59.169 138.436 57.969 139.236 56.669C140.036 55.369 140.536 53.969 140.636 52.569C140.836 51.269 140.836 49.069 140.936 46.069V30.469L143.236 30.069V21.869L126.736 24.769L126.436 24.669ZM127.936 31.069V25.969L141.636 23.569V28.669L139.336 29.069V45.969C139.336 48.969 139.236 51.069 139.136 52.269C139.036 53.469 138.536 54.569 137.936 55.769C137.236 56.969 136.336 57.869 135.236 58.569C134.136 59.269 132.536 59.869 130.536 60.169C129.536 60.369 128.536 60.469 127.436 60.469V55.269C127.636 55.269 127.736 55.269 127.936 55.169C129.336 54.969 129.836 54.169 130.136 53.469C130.436 52.769 130.536 51.269 130.536 48.869V30.469L127.936 31.069ZM109.536 50.269V55.369L96.4361 57.669V52.569L98.6361 52.169V36.169L96.4361 36.569V31.469L110.436 29.069C111.736 28.869 112.936 28.669 114.036 28.469C115.136 28.369 116.136 28.269 116.836 28.169C117.636 28.169 118.336 28.069 118.936 28.169C120.636 28.269 121.936 28.769 123.036 29.869C124.036 30.969 124.636 32.269 124.536 33.969C124.536 35.269 124.236 36.469 123.536 37.669C122.836 38.869 122.036 39.769 120.936 40.469L120.436 40.869L124.836 47.669L126.336 47.369V52.469L117.836 53.969L112.036 43.669L107.536 44.469V50.669L109.536 50.269ZM127.536 53.769C127.536 53.769 127.436 53.769 127.536 53.769V53.769Z" fill="#C39951"/>
<path d="M168.236 8.56909L156.636 10.5691L152.136 20.1691L158.436 19.0691L168.236 8.56909ZM154.836 18.0691L157.736 11.8691L164.036 10.7691L157.736 17.5691L154.836 18.0691Z" fill="#C39951"/>
<path d="M144.136 21.669V29.869L146.236 29.469V42.369L144.136 42.769V50.969L171.136 46.269H171.336V35.869L162.736 37.369V39.569L158.136 40.369V37.369L163.436 36.469V29.269L158.136 30.169V27.469L162.736 26.669V28.869L171.336 27.369V16.969L144.336 21.669H144.136ZM164.236 40.769V38.569L169.736 37.569V44.869L145.636 49.069V43.969L147.736 43.569V27.569L145.636 27.969V22.869L169.836 18.669V25.969L164.336 26.969V24.769L156.736 26.069V31.869L162.036 30.969V35.069L156.736 35.969V42.069L164.236 40.769Z" fill="#C39951"/>
<path d="M197.636 25.1691L202.536 19.6691L205.036 19.2691V11.0691L190.436 13.5691H190.236V21.7691L191.136 21.5691L186.736 26.5691V22.3691L188.836 21.9691V13.7691L172.836 16.5691H172.636V24.7691L174.736 24.3691V37.2691L172.636 37.6691V45.8691L188.536 43.0691H188.736V34.8691L186.636 35.2691V29.8691L190.636 34.5691L190.036 34.6691V42.8691L205.536 40.1691V31.9691L203.736 32.2691L197.636 25.1691ZM191.736 14.9691L203.436 12.9691V18.0691L201.736 18.3691L195.636 25.2691L203.236 34.0691L204.136 33.8691V38.9691L191.736 41.1691V36.0691L193.736 35.7691L187.436 28.3691L195.336 19.4691L191.936 20.0691L191.736 14.9691ZM187.236 36.7691V41.8691L174.136 44.1691V39.0691L176.236 38.6691V22.6691L174.136 23.0691V17.9691L187.236 15.6691V20.7691L185.136 21.1691V37.1691L187.236 36.7691Z" fill="#C39951"/>
<path d="M223.436 16.069V7.86902L206.736 10.769H206.536V18.969L209.036 18.569V31.469L206.536 31.869V40.069L223.236 37.169H223.436V28.969L220.936 29.369V16.469L223.436 16.069ZM221.836 30.769V35.869L208.036 38.269V33.169L210.536 32.769V16.769L208.036 17.169V12.069L221.836 9.66901V14.769L219.336 15.169V31.169L221.836 30.769Z" fill="#C39951"/>
</svg>
